<svg height="512" viewBox="0 0 450 450" width="512" xmlns="http://www.w3.org/2000/svg">
  <path d="M405.55 273.8H262.32c-2.76 0-5-2.24-5-5v-45.41c0-2.76 2.24-5 5-5h143.23c2.76 0 5 2.24 5 5v45.41c0 2.76-2.24 5-5 5zm-138.23-10h133.23v-35.41H267.32z"/>
  <path d="M408.4 445.78H259.47c-10.76 0-19.52-8.76-19.52-19.52V212.08c0-10.76 8.76-19.51 19.52-19.51H408.4c10.76 0 19.52 8.75 19.52 19.51v214.19c0 10.75-8.76 19.51-19.52 19.51zM259.47 202.56c-5.25 0-9.52 4.27-9.52 9.51v214.19c0 5.25 4.27 9.52 9.52 9.52H408.4c5.25 0 9.52-4.27 9.52-9.52V212.08c0-5.25-4.27-9.51-9.52-9.51H259.47z"/>
  <path d="M405.55 351.07h-21.2c-2.76 0-5-2.24-5-5v-21.2c0-2.76 2.24-5 5-5h21.2c2.76 0 5 2.24 5 5v21.2c0 2.76-2.24 5-5 5zm-16.2-10h11.2v-11.2h-11.2zM405.55 428.34h-21.2c-2.76 0-5-2.24-5-5v-59.83c0-2.76 2.24-5 5-5h21.2c2.76 0 5 2.24 5 5v59.83c0 2.76-2.24 5-5 5zm-16.2-10h11.2v-49.83h-11.2zM364.48 351.07h-21.2c-2.76 0-5-2.24-5-5v-21.2c0-2.76 2.24-5 5-5h21.2c2.76 0 5 2.24 5 5v21.2c0 2.76-2.24 5-5 5zm-16.2-10h11.2v-11.2h-11.2zM364.48 389.71h-21.2c-2.76 0-5-2.24-5-5v-21.2c0-2.76 2.24-5 5-5h21.2c2.76 0 5 2.24 5 5v21.2c0 2.76-2.24 5-5 5zm-16.2-10h11.2v-11.2h-11.2zM364.48 428.34h-62.27c-2.76 0-5-2.24-5-5v-21.2c0-2.76 2.24-5 5-5h62.27c2.76 0 5 2.24 5 5v21.2c0 2.76-2.24 5-5 5zm-57.27-10h52.27v-11.2h-52.27zM323.41 351.07h-21.2c-2.76 0-5-2.24-5-5v-21.2c0-2.76 2.24-5 5-5h21.2c2.76 0 5 2.24 5 5v21.2c0 2.76-2.24 5-5 5zm-16.2-10h11.2v-11.2h-11.2zM323.41 389.71h-21.2c-2.76 0-5-2.24-5-5v-21.2c0-2.76 2.24-5 5-5h21.2c2.76 0 5 2.24 5 5v21.2c0 2.76-2.24 5-5 5zm-16.2-10h11.2v-11.2h-11.2zM298.24 312.43h-37.1c-2.76 0-5-2.24-5-5v-21.2c0-2.76 2.24-5 5-5h37.1c2.76 0 5 2.24 5 5v21.2c0 2.77-2.24 5-5 5zm-32.1-10h27.1v-11.2h-27.1zM282.34 351.07h-21.2c-2.76 0-5-2.24-5-5v-21.2c0-2.76 2.24-5 5-5h21.2c2.76 0 5 2.24 5 5v21.2c0 2.76-2.24 5-5 5zm-16.2-10h11.2v-11.2h-11.2zM282.34 389.71h-21.2c-2.76 0-5-2.24-5-5v-21.2c0-2.76 2.24-5 5-5h21.2c2.76 0 5 2.24 5 5v21.2c0 2.76-2.24 5-5 5zm-16.2-10h11.2v-11.2h-11.2zM282.34 428.34h-21.2c-2.76 0-5-2.24-5-5v-21.2c0-2.76 2.24-5 5-5h21.2c2.76 0 5 2.24 5 5v21.2c0 2.76-2.24 5-5 5zm-16.2-10h11.2v-11.2h-11.2zM405.55 312.43h-37.1c-2.76 0-5-2.24-5-5v-21.2c0-2.76 2.24-5 5-5h37.1c2.76 0 5 2.24 5 5v21.2c0 2.77-2.24 5-5 5zm-32.1-10h27.1v-11.2h-27.1zM352.48 312.43h-37.1c-2.76 0-5-2.24-5-5v-21.2c0-2.76 2.24-5 5-5h37.1c2.76 0 5 2.24 5 5v21.2c0 2.77-2.23 5-5 5zm-32.09-10h27.1v-11.2h-27.1z"/>
  <path d="M244.95 414.02H65.45c-23.63 0-42.85-19.22-42.85-42.85V48.55C22.6 24.92 41.83 5.7 65.45 5.7h200.97c2.76 0 5 2.24 5 5s-2.24 5-5 5H65.45c-18.11 0-32.85 14.74-32.85 32.85v322.63c0 18.11 14.74 32.85 32.85 32.85h179.5c2.76 0 5 2.24 5 5s-2.23 4.99-5 4.99zm92-211.46c-2.76 0-5-2.24-5-5V81.23c0-2.76 2.24-5 5-5s5 2.24 5 5v116.33c0 2.76-2.24 5-5 5z"/>
  <path d="M336.95 86.23h-51.9c-13.03 0-23.62-10.6-23.62-23.62V10.7c0-2.02 1.22-3.85 3.09-4.62s4.02-.35 5.45 1.08l70.53 70.53c1.43 1.43 1.86 3.58 1.08 5.45-.79 1.87-2.61 3.09-4.63 3.09zm-65.53-63.46V62.6c0 7.51 6.11 13.62 13.62 13.62h39.83zM295.74 132.88h-74.6c-2.76 0-5-2.24-5-5s2.24-5 5-5h74.6c2.76 0 5 2.24 5 5s-2.24 5-5 5zM295.74 179.78h-88.29c-2.76 0-5-2.24-5-5s2.24-5 5-5h88.29c2.76 0 5 2.24 5 5s-2.24 5-5 5zM244.95 226.68H133.94c-2.76 0-5-2.24-5-5s2.24-5 5-5h111.01c2.76 0 5 2.24 5 5s-2.23 5-5 5zM244.95 273.58H133.94c-2.76 0-5-2.24-5-5s2.24-5 5-5h111.01c2.76 0 5 2.24 5 5s-2.23 5-5 5zM244.95 320.48H133.94c-2.76 0-5-2.24-5-5s2.24-5 5-5h111.01c2.76 0 5 2.24 5 5s-2.23 5-5 5zM244.95 367.37H133.94c-2.76 0-5-2.24-5-5s2.24-5 5-5h111.01c2.76 0 5 2.24 5 5s-2.23 5-5 5zM79.12 239.86c-1.28 0-2.56-.49-3.54-1.46l-10.31-10.31c-1.95-1.95-1.95-5.12 0-7.07s5.12-1.95 7.07 0l6.77 6.77 22.83-22.83c1.95-1.95 5.12-1.95 7.07 0s1.95 5.12 0 7.07L82.66 238.4c-.98.97-2.26 1.46-3.54 1.46zM79.12 333.66c-1.28 0-2.56-.49-3.54-1.46l-10.31-10.31c-1.95-1.95-1.95-5.12 0-7.07s5.12-1.95 7.07 0l6.77 6.77 22.83-22.83c1.95-1.95 5.12-1.95 7.07 0s1.95 5.12 0 7.07L82.64 332.2c-.96.97-2.24 1.46-3.52 1.46zM79.12 380.56c-1.28 0-2.56-.49-3.54-1.46l-10.31-10.31c-1.95-1.95-1.95-5.12 0-7.07s5.12-1.95 7.07 0l6.77 6.77 22.83-22.83c1.95-1.95 5.12-1.95 7.07 0s1.95 5.12 0 7.07L82.64 379.1c-.96.97-2.24 1.46-3.52 1.46zM79.12 286.76c-1.28 0-2.56-.49-3.54-1.46l-10.31-10.31c-1.95-1.95-1.95-5.12 0-7.07s5.12-1.95 7.07 0l6.77 6.77 22.83-22.83c1.95-1.95 5.12-1.95 7.07 0s1.95 5.12 0 7.07L82.64 285.3c-.96.97-2.24 1.46-3.52 1.46zM132.32 181.9c-37.78 0-68.51-30.73-68.51-68.51s30.73-68.51 68.51-68.51 68.51 30.73 68.51 68.51-30.73 68.51-68.51 68.51zm0-127.01c-32.26 0-58.51 26.25-58.51 58.51s26.25 58.51 58.51 58.51 58.51-26.25 58.51-58.51-26.25-58.51-58.51-58.51z"/>
  <path d="M133.01 86.76c-2.76 0-5-2.24-5-5V70.51c0-2.76 2.24-5 5-5s5 2.24 5 5v11.26c0 2.76-2.24 4.99-5 4.99zM131.63 161.29c-2.76 0-5-2.24-5-5v-11.26c0-2.76 2.24-5 5-5s5 2.24 5 5v11.26c0 2.76-2.24 5-5 5z"/>
  <path d="M130.72 150.05c-.38 0-.76-.01-1.14-.03-8.6-.43-18.59-6.24-18.45-21.19.03-2.74 2.26-4.95 5-4.95h.05c2.76.03 4.98 2.29 4.95 5.05-.09 8.81 4.82 10.9 8.95 11.11 6.2.31 12.44-3.61 12.84-8.06.01-.07.01-.13.02-.2 1.09-8.35-9.93-13.04-13.33-14.28-14.42-5.24-20.37-13.15-17.67-23.51C115.48 80.41 126.89 75.67 136 77c10.69 1.57 17.88 10.36 17.49 21.39-.1 2.76-2.44 4.92-5.18 4.82-2.76-.1-4.92-2.42-4.82-5.18.26-7.22-4.66-10.51-8.95-11.14-4.63-.68-10.79 1.43-12.93 9.62-.92 3.53-.18 7.38 11.41 11.59 5.16 1.88 21.82 9.21 19.84 24.88-1 10.45-12.01 17.07-22.14 17.07z"/>
</svg>